<?xml version="1.0" encoding="utf-8"?>
<!-- Generator: Adobe Illustrator 19.0.0, SVG Export Plug-In . SVG Version: 6.00 Build 0)  -->
<svg version="1.1" id="Layer_1" xmlns="http://www.w3.org/2000/svg" xmlns:xlink="http://www.w3.org/1999/xlink" x="0px" y="0px"
	 viewBox="-62.9 161.2 297.6 136.8" style="enable-background:new -62.9 161.2 297.6 136.8;" xml:space="preserve">
<style type="text/css">
	.st0{fill:#FFFFFF;}
</style>
<title>Without Background</title>
<desc>Created with Sketch.</desc>
<g>
	<polygon class="st0" points="234.8,188.9 -61.9,161.2 -62.9,171.2 125.5,188.7 125.5,298.1 135.5,298.1 135.5,189.7 233.8,198.8 	
		"/>
	<path class="st0" d="M65.5,215.9c-5.4,0-10.9,0-16.3,0V240c3.5,0,7.1,0.2,10.7,0c3.5-0.2,4.9,1.3,4.8,4.6c0,3.1-1.4,4.5-4.6,4.4
		c-3.5-0.2-7,0-10.9,0v24.6c4.8,0,9.5-0.1,14.4-0.1c3.6,0,4.8,1.6,4.8,4.7c0.1,3.4-1.9,4-4.8,3.9c-7.3-0.2-14.6-0.1-22,0
		c-2.8,0-3.8-1-3.8-3.8c0.1-22.1,0.1-44.3,0-66.4c0-3.2,1.7-4.2,4.3-4.2c7.3-0.1,14.7-0.3,22,0c4.7,0.2,4.4,2.9,4.2,5.8
		C68.1,214.8,66.9,215.9,65.5,215.9z"/>
	<path class="st0" d="M181.8,215.7c-5.4,0-10.9,0-16.3,0v24.1c3.5,0,7.1,0.2,10.7,0c3.5-0.2,4.9,1.3,4.8,4.6c0,3.1-1.4,4.5-4.6,4.4
		c-3.5-0.2-7,0-10.9,0v24.6c4.8,0,9.6,0.2,14.4-0.1c3.6-0.2,4.8,1.6,4.8,4.7c0.1,3.4-1.9,4-4.8,3.9c-7.3-0.2-14.6-0.1-22,0
		c-2.8,0-3.8-1-3.8-3.8c0.1-22.1,0.1-44.3,0-66.4c0-3.2,1.7-4.2,4.3-4.2c7.3-0.1,14.7-0.3,22,0c4.7,0.2,4.4,2.9,4.2,5.8
		C184.4,214.6,183.2,215.7,181.8,215.7z"/>
	<path class="st0" d="M-38.9,269.7c3.7-4.7,3.4-11.6-0.5-16.1c-1.4-1.7-3.1-3.1-4.7-4.4c-4.2-3.2-8.8-6.1-12-10.1
		c-6-7.4-5-20.5,1.2-27.8c6.4-7.4,19.9-6.8,26,1.1c2.1,2.7,1.2,4.9-0.9,6.4c-1,0.7-3.5,0.2-4.8-0.7c-5.7-4.1-11.4-4.1-14.5,0.4
		c-2.7,3.9-2.3,11.4,1.4,14.7c3,2.8,6.5,5.1,10,7.4c13.3,8.7,13.3,25.3,6.2,35c-7,9.6-23.4,8.3-29.8-3.1c-0.1-0.1-0.1-0.2-0.2-0.4
		c-1-2.7,3-6.3,5.5-4.9c1,0.5,2.1,1.7,2.8,2.2c3.8,3.3,8.6,4.4,12.5,2C-40.1,271.1-39.5,270.4-38.9,269.7z"/>
	<path class="st0" d="M92.3,273.5c4.1,0,7.4,0,10.7,0c3.1,0,4.4,1.4,4.4,4.6c0.1,3.6-1.7,4.1-4.6,4c-5.8-0.1-11.7-0.1-17.5,0
		c-2.8,0.1-3.9-1-3.9-3.8c0-22.2,0.1-44.3,0-66.5c0-3.6,2.2-4.1,4.9-4.2c2.8-0.2,5.5,0,5.9,3.7c0.1,1.3,0.1,2.7,0.1,4
		c0,17.3,0,34.7,0,52C92.3,269.1,92.3,270.9,92.3,273.5z"/>
	<path class="st0" d="M19.1,207.6h-4.2c-1.8,0-3.3,1.5-3.3,3.3v27.5H-4.2v-27.5c0-1.8-1.5-3.3-3.3-3.3h-4.2c-1.8,0-3.3,1.5-3.3,3.3
		v67.9c0,1.8,1.5,3.3,3.3,3.3h4.2c1.8,0,3.3-1.5,3.3-3.3v-29.5h15.8v29.5c0,1.8,1.5,3.3,3.3,3.3h4.2c1.8,0,3.3-1.5,3.3-3.3v-67.9
		C22.4,209,20.9,207.6,19.1,207.6z"/>
	<path class="st0" d="M230.1,246.6c-1.7-1.4-1.8-2.3,0-3.8c2.6-2.2,4.2-6.1,4.2-13.3c0-11.6-3.2-19.3-12.3-21.4
		c-6-1.4-12.6-0.5-18.7-0.7c-3.8-0.1-5.5,1.4-5.5,5.6c0.2,21.3,0.2,42.7,0,64c0,3.6,0.8,4.9,4.7,5c5,0.2,6.3-0.6,6.3-6.3
		c0-3,0-5.7,0-8.5c0-5.2,0-13.3,0-18.5c0,0,1.5,0,3,0c11,0,12.1,1.6,12.3,12.7c0.1,4.7,0.1,9.3,0.2,14c0.1,6.5,0.1,6.5,6.7,6.4
		c0.3,0,0.5,0,0.8,0c1.5-0.1,2.6-1.3,2.6-2.8c0-5.2,0-10.2,0-15.2C234.3,257.4,234.8,250.4,230.1,246.6z M209,239.9v-23.7
		c15.5-2.5,15.3,11.1,15.3,11.1C224.3,243.1,209,239.9,209,239.9z"/>
</g>
</svg>
